<mxfile host="app.diagrams.net" agent="Mozilla/5.0 (Windows NT 10.0; Win64; x64) AppleWebKit/537.36 (KHTML, like Gecko) Chrome/128.0.0.0 Safari/537.36" version="24.7.7">
  <diagram id="C5RBs43oDa-KdzZeNtuy" name="Page-1">
    <mxGraphModel grid="1" page="1" gridSize="10" guides="1" tooltips="1" connect="1" arrows="1" fold="1" pageScale="1" pageWidth="827" pageHeight="1169" math="0" shadow="0">
      <root>
        <mxCell id="WIyWlLk6GJQsqaUBKTNV-0" />
        <mxCell id="WIyWlLk6GJQsqaUBKTNV-1" parent="WIyWlLk6GJQsqaUBKTNV-0" />
        <mxCell id="WIyWlLk6GJQsqaUBKTNV-2" value="" style="rounded=0;html=1;jettySize=auto;orthogonalLoop=1;fontSize=11;endArrow=block;endFill=0;endSize=8;strokeWidth=1;shadow=0;labelBackgroundColor=none;edgeStyle=orthogonalEdgeStyle;" edge="1" parent="WIyWlLk6GJQsqaUBKTNV-1" source="WIyWlLk6GJQsqaUBKTNV-3" target="WIyWlLk6GJQsqaUBKTNV-6">
          <mxGeometry relative="1" as="geometry" />
        </mxCell>
        <mxCell id="WIyWlLk6GJQsqaUBKTNV-3" value="Sql" style="rounded=1;whiteSpace=wrap;html=1;fontSize=12;glass=0;strokeWidth=1;shadow=0;" vertex="1" parent="WIyWlLk6GJQsqaUBKTNV-1">
          <mxGeometry x="110" y="335" width="120" height="40" as="geometry" />
        </mxCell>
        <mxCell id="WIyWlLk6GJQsqaUBKTNV-5" value="No" style="edgeStyle=orthogonalEdgeStyle;rounded=0;html=1;jettySize=auto;orthogonalLoop=1;fontSize=11;endArrow=block;endFill=0;endSize=8;strokeWidth=1;shadow=0;labelBackgroundColor=none;" edge="1" parent="WIyWlLk6GJQsqaUBKTNV-1" source="WIyWlLk6GJQsqaUBKTNV-6" target="WIyWlLk6GJQsqaUBKTNV-7">
          <mxGeometry y="10" relative="1" as="geometry">
            <mxPoint as="offset" />
          </mxGeometry>
        </mxCell>
        <mxCell id="LCSVGYwQo2RgWbgkhEJ3-1" value="" style="edgeStyle=orthogonalEdgeStyle;rounded=0;orthogonalLoop=1;jettySize=auto;html=1;" edge="1" parent="WIyWlLk6GJQsqaUBKTNV-1" source="WIyWlLk6GJQsqaUBKTNV-6" target="LCSVGYwQo2RgWbgkhEJ3-0">
          <mxGeometry relative="1" as="geometry" />
        </mxCell>
        <mxCell id="LCSVGYwQo2RgWbgkhEJ3-3" value="" style="edgeStyle=orthogonalEdgeStyle;rounded=0;orthogonalLoop=1;jettySize=auto;html=1;" edge="1" parent="WIyWlLk6GJQsqaUBKTNV-1" source="WIyWlLk6GJQsqaUBKTNV-6" target="LCSVGYwQo2RgWbgkhEJ3-2">
          <mxGeometry relative="1" as="geometry" />
        </mxCell>
        <mxCell id="WIyWlLk6GJQsqaUBKTNV-6" value="DbContext" style="rhombus;whiteSpace=wrap;html=1;shadow=0;fontFamily=Helvetica;fontSize=12;align=center;strokeWidth=1;spacing=6;spacingTop=-4;" vertex="1" parent="WIyWlLk6GJQsqaUBKTNV-1">
          <mxGeometry x="120" y="435" width="100" height="80" as="geometry" />
        </mxCell>
        <mxCell id="LCSVGYwQo2RgWbgkhEJ3-5" value="" style="edgeStyle=orthogonalEdgeStyle;rounded=0;orthogonalLoop=1;jettySize=auto;html=1;" edge="1" parent="WIyWlLk6GJQsqaUBKTNV-1" source="WIyWlLk6GJQsqaUBKTNV-7" target="LCSVGYwQo2RgWbgkhEJ3-4">
          <mxGeometry relative="1" as="geometry" />
        </mxCell>
        <mxCell id="WIyWlLk6GJQsqaUBKTNV-7" value="AgentService" style="rounded=1;whiteSpace=wrap;html=1;fontSize=12;glass=0;strokeWidth=1;shadow=0;" vertex="1" parent="WIyWlLk6GJQsqaUBKTNV-1">
          <mxGeometry x="280" y="385" width="120" height="40" as="geometry" />
        </mxCell>
        <mxCell id="LCSVGYwQo2RgWbgkhEJ3-9" value="" style="edgeStyle=orthogonalEdgeStyle;rounded=0;orthogonalLoop=1;jettySize=auto;html=1;" edge="1" parent="WIyWlLk6GJQsqaUBKTNV-1" source="LCSVGYwQo2RgWbgkhEJ3-0" target="LCSVGYwQo2RgWbgkhEJ3-8">
          <mxGeometry relative="1" as="geometry" />
        </mxCell>
        <mxCell id="LCSVGYwQo2RgWbgkhEJ3-0" value="TargetService" style="whiteSpace=wrap;html=1;shadow=0;strokeWidth=1;spacing=6;spacingTop=-4;" vertex="1" parent="WIyWlLk6GJQsqaUBKTNV-1">
          <mxGeometry x="400" y="455" width="130" height="40" as="geometry" />
        </mxCell>
        <mxCell id="LCSVGYwQo2RgWbgkhEJ3-13" value="" style="edgeStyle=orthogonalEdgeStyle;rounded=0;orthogonalLoop=1;jettySize=auto;html=1;" edge="1" parent="WIyWlLk6GJQsqaUBKTNV-1" source="LCSVGYwQo2RgWbgkhEJ3-2" target="LCSVGYwQo2RgWbgkhEJ3-12">
          <mxGeometry relative="1" as="geometry" />
        </mxCell>
        <mxCell id="LCSVGYwQo2RgWbgkhEJ3-2" value="MissionService" style="whiteSpace=wrap;html=1;shadow=0;strokeWidth=1;spacing=6;spacingTop=-4;" vertex="1" parent="WIyWlLk6GJQsqaUBKTNV-1">
          <mxGeometry x="280" y="525" width="120" height="60" as="geometry" />
        </mxCell>
        <mxCell id="LCSVGYwQo2RgWbgkhEJ3-7" value="" style="edgeStyle=orthogonalEdgeStyle;rounded=0;orthogonalLoop=1;jettySize=auto;html=1;" edge="1" parent="WIyWlLk6GJQsqaUBKTNV-1" source="LCSVGYwQo2RgWbgkhEJ3-4" target="LCSVGYwQo2RgWbgkhEJ3-6">
          <mxGeometry relative="1" as="geometry" />
        </mxCell>
        <mxCell id="LCSVGYwQo2RgWbgkhEJ3-4" value="IAgentService" style="whiteSpace=wrap;html=1;rounded=1;glass=0;strokeWidth=1;shadow=0;" vertex="1" parent="WIyWlLk6GJQsqaUBKTNV-1">
          <mxGeometry x="280" y="305" width="120" height="40" as="geometry" />
        </mxCell>
        <mxCell id="LCSVGYwQo2RgWbgkhEJ3-23" value="" style="edgeStyle=orthogonalEdgeStyle;rounded=0;orthogonalLoop=1;jettySize=auto;html=1;" edge="1" parent="WIyWlLk6GJQsqaUBKTNV-1" source="LCSVGYwQo2RgWbgkhEJ3-6" target="LCSVGYwQo2RgWbgkhEJ3-22">
          <mxGeometry relative="1" as="geometry" />
        </mxCell>
        <mxCell id="LCSVGYwQo2RgWbgkhEJ3-37" style="edgeStyle=orthogonalEdgeStyle;rounded=0;orthogonalLoop=1;jettySize=auto;html=1;" edge="1" parent="WIyWlLk6GJQsqaUBKTNV-1">
          <mxGeometry relative="1" as="geometry">
            <mxPoint x="900" y="480" as="targetPoint" />
            <mxPoint x="710" y="322.5" as="sourcePoint" />
            <Array as="points">
              <mxPoint x="910" y="323" />
              <mxPoint x="910" y="480" />
            </Array>
          </mxGeometry>
        </mxCell>
        <mxCell id="LCSVGYwQo2RgWbgkhEJ3-68" style="edgeStyle=orthogonalEdgeStyle;rounded=0;orthogonalLoop=1;jettySize=auto;html=1;" edge="1" parent="WIyWlLk6GJQsqaUBKTNV-1" source="LCSVGYwQo2RgWbgkhEJ3-6" target="LCSVGYwQo2RgWbgkhEJ3-66">
          <mxGeometry relative="1" as="geometry">
            <Array as="points">
              <mxPoint x="700" y="523" />
              <mxPoint x="640" y="523" />
            </Array>
          </mxGeometry>
        </mxCell>
        <mxCell id="LCSVGYwQo2RgWbgkhEJ3-6" value="AgentController" style="whiteSpace=wrap;html=1;rounded=1;glass=0;strokeWidth=1;shadow=0;" vertex="1" parent="WIyWlLk6GJQsqaUBKTNV-1">
          <mxGeometry x="590" y="305" width="120" height="40" as="geometry" />
        </mxCell>
        <mxCell id="LCSVGYwQo2RgWbgkhEJ3-11" value="" style="edgeStyle=orthogonalEdgeStyle;rounded=0;orthogonalLoop=1;jettySize=auto;html=1;" edge="1" parent="WIyWlLk6GJQsqaUBKTNV-1" source="LCSVGYwQo2RgWbgkhEJ3-8" target="LCSVGYwQo2RgWbgkhEJ3-10">
          <mxGeometry relative="1" as="geometry" />
        </mxCell>
        <mxCell id="LCSVGYwQo2RgWbgkhEJ3-8" value="ITargetService" style="whiteSpace=wrap;html=1;shadow=0;strokeWidth=1;spacing=6;spacingTop=-4;" vertex="1" parent="WIyWlLk6GJQsqaUBKTNV-1">
          <mxGeometry x="560" y="455" width="130" height="40" as="geometry" />
        </mxCell>
        <mxCell id="LCSVGYwQo2RgWbgkhEJ3-25" value="" style="edgeStyle=orthogonalEdgeStyle;rounded=0;orthogonalLoop=1;jettySize=auto;html=1;" edge="1" parent="WIyWlLk6GJQsqaUBKTNV-1" source="LCSVGYwQo2RgWbgkhEJ3-10" target="LCSVGYwQo2RgWbgkhEJ3-24">
          <mxGeometry relative="1" as="geometry">
            <Array as="points">
              <mxPoint x="960" y="475" />
              <mxPoint x="960" y="475" />
            </Array>
          </mxGeometry>
        </mxCell>
        <mxCell id="LCSVGYwQo2RgWbgkhEJ3-36" style="edgeStyle=orthogonalEdgeStyle;rounded=0;orthogonalLoop=1;jettySize=auto;html=1;" edge="1" parent="WIyWlLk6GJQsqaUBKTNV-1" source="LCSVGYwQo2RgWbgkhEJ3-10">
          <mxGeometry relative="1" as="geometry">
            <mxPoint x="910" y="580" as="targetPoint" />
          </mxGeometry>
        </mxCell>
        <mxCell id="LCSVGYwQo2RgWbgkhEJ3-69" style="edgeStyle=orthogonalEdgeStyle;rounded=0;orthogonalLoop=1;jettySize=auto;html=1;" edge="1" parent="WIyWlLk6GJQsqaUBKTNV-1" source="LCSVGYwQo2RgWbgkhEJ3-10" target="LCSVGYwQo2RgWbgkhEJ3-66">
          <mxGeometry relative="1" as="geometry">
            <Array as="points">
              <mxPoint x="820" y="730" />
            </Array>
          </mxGeometry>
        </mxCell>
        <mxCell id="LCSVGYwQo2RgWbgkhEJ3-10" value="TargetController" style="whiteSpace=wrap;html=1;shadow=0;strokeWidth=1;spacing=6;spacingTop=-4;" vertex="1" parent="WIyWlLk6GJQsqaUBKTNV-1">
          <mxGeometry x="720" y="455" width="130" height="40" as="geometry" />
        </mxCell>
        <mxCell id="LCSVGYwQo2RgWbgkhEJ3-15" value="" style="edgeStyle=orthogonalEdgeStyle;rounded=0;orthogonalLoop=1;jettySize=auto;html=1;" edge="1" parent="WIyWlLk6GJQsqaUBKTNV-1" source="LCSVGYwQo2RgWbgkhEJ3-12" target="LCSVGYwQo2RgWbgkhEJ3-14">
          <mxGeometry relative="1" as="geometry" />
        </mxCell>
        <mxCell id="LCSVGYwQo2RgWbgkhEJ3-12" value="IMissionService" style="whiteSpace=wrap;html=1;shadow=0;strokeWidth=1;spacing=6;spacingTop=-4;" vertex="1" parent="WIyWlLk6GJQsqaUBKTNV-1">
          <mxGeometry x="480" y="525" width="120" height="60" as="geometry" />
        </mxCell>
        <mxCell id="LCSVGYwQo2RgWbgkhEJ3-27" value="" style="edgeStyle=orthogonalEdgeStyle;rounded=0;orthogonalLoop=1;jettySize=auto;html=1;" edge="1" parent="WIyWlLk6GJQsqaUBKTNV-1" source="LCSVGYwQo2RgWbgkhEJ3-14" target="LCSVGYwQo2RgWbgkhEJ3-26">
          <mxGeometry relative="1" as="geometry" />
        </mxCell>
        <mxCell id="LCSVGYwQo2RgWbgkhEJ3-35" value="" style="edgeStyle=orthogonalEdgeStyle;rounded=0;orthogonalLoop=1;jettySize=auto;html=1;" edge="1" parent="WIyWlLk6GJQsqaUBKTNV-1" source="LCSVGYwQo2RgWbgkhEJ3-14" target="LCSVGYwQo2RgWbgkhEJ3-34">
          <mxGeometry relative="1" as="geometry" />
        </mxCell>
        <mxCell id="LCSVGYwQo2RgWbgkhEJ3-67" value="" style="edgeStyle=orthogonalEdgeStyle;rounded=0;orthogonalLoop=1;jettySize=auto;html=1;" edge="1" parent="WIyWlLk6GJQsqaUBKTNV-1" source="LCSVGYwQo2RgWbgkhEJ3-14" target="LCSVGYwQo2RgWbgkhEJ3-66">
          <mxGeometry relative="1" as="geometry" />
        </mxCell>
        <mxCell id="LCSVGYwQo2RgWbgkhEJ3-14" value="MissionController" style="whiteSpace=wrap;html=1;shadow=0;strokeWidth=1;spacing=6;spacingTop=-4;" vertex="1" parent="WIyWlLk6GJQsqaUBKTNV-1">
          <mxGeometry x="670" y="525" width="120" height="60" as="geometry" />
        </mxCell>
        <mxCell id="LCSVGYwQo2RgWbgkhEJ3-29" value="" style="edgeStyle=orthogonalEdgeStyle;rounded=0;orthogonalLoop=1;jettySize=auto;html=1;" edge="1" parent="WIyWlLk6GJQsqaUBKTNV-1" source="LCSVGYwQo2RgWbgkhEJ3-22" target="LCSVGYwQo2RgWbgkhEJ3-28">
          <mxGeometry relative="1" as="geometry" />
        </mxCell>
        <mxCell id="LCSVGYwQo2RgWbgkhEJ3-22" value="Mvc Agent Service&amp;nbsp;&lt;div&gt;IAgentService&lt;/div&gt;" style="whiteSpace=wrap;html=1;rounded=1;glass=0;strokeWidth=1;shadow=0;" vertex="1" parent="WIyWlLk6GJQsqaUBKTNV-1">
          <mxGeometry x="1000" y="295" width="120" height="60" as="geometry" />
        </mxCell>
        <mxCell id="LCSVGYwQo2RgWbgkhEJ3-31" value="" style="edgeStyle=orthogonalEdgeStyle;rounded=0;orthogonalLoop=1;jettySize=auto;html=1;" edge="1" parent="WIyWlLk6GJQsqaUBKTNV-1" source="LCSVGYwQo2RgWbgkhEJ3-24" target="LCSVGYwQo2RgWbgkhEJ3-30">
          <mxGeometry relative="1" as="geometry" />
        </mxCell>
        <mxCell id="LCSVGYwQo2RgWbgkhEJ3-24" value="Mvc Target Service&lt;div&gt;ITarget Service&lt;/div&gt;" style="whiteSpace=wrap;html=1;shadow=0;strokeWidth=1;spacing=6;spacingTop=-4;" vertex="1" parent="WIyWlLk6GJQsqaUBKTNV-1">
          <mxGeometry x="1000" y="440" width="130" height="55" as="geometry" />
        </mxCell>
        <mxCell id="LCSVGYwQo2RgWbgkhEJ3-33" value="" style="edgeStyle=orthogonalEdgeStyle;rounded=0;orthogonalLoop=1;jettySize=auto;html=1;" edge="1" parent="WIyWlLk6GJQsqaUBKTNV-1" source="LCSVGYwQo2RgWbgkhEJ3-26" target="LCSVGYwQo2RgWbgkhEJ3-32">
          <mxGeometry relative="1" as="geometry" />
        </mxCell>
        <mxCell id="LCSVGYwQo2RgWbgkhEJ3-48" value="" style="edgeStyle=orthogonalEdgeStyle;rounded=0;orthogonalLoop=1;jettySize=auto;html=1;" edge="1" parent="WIyWlLk6GJQsqaUBKTNV-1" source="LCSVGYwQo2RgWbgkhEJ3-26" target="LCSVGYwQo2RgWbgkhEJ3-38">
          <mxGeometry relative="1" as="geometry" />
        </mxCell>
        <mxCell id="LCSVGYwQo2RgWbgkhEJ3-26" value="Mvc MIssion Service&lt;br&gt;IMissionService" style="whiteSpace=wrap;html=1;shadow=0;strokeWidth=1;spacing=6;spacingTop=-4;" vertex="1" parent="WIyWlLk6GJQsqaUBKTNV-1">
          <mxGeometry x="1000" y="525" width="120" height="60" as="geometry" />
        </mxCell>
        <mxCell id="LCSVGYwQo2RgWbgkhEJ3-28" value="Agent View Controller" style="whiteSpace=wrap;html=1;rounded=1;glass=0;strokeWidth=1;shadow=0;" vertex="1" parent="WIyWlLk6GJQsqaUBKTNV-1">
          <mxGeometry x="1200" y="295" width="120" height="60" as="geometry" />
        </mxCell>
        <mxCell id="LCSVGYwQo2RgWbgkhEJ3-58" style="edgeStyle=orthogonalEdgeStyle;rounded=0;orthogonalLoop=1;jettySize=auto;html=1;entryX=0.5;entryY=0;entryDx=0;entryDy=0;" edge="1" parent="WIyWlLk6GJQsqaUBKTNV-1" source="LCSVGYwQo2RgWbgkhEJ3-30" target="LCSVGYwQo2RgWbgkhEJ3-56">
          <mxGeometry relative="1" as="geometry" />
        </mxCell>
        <mxCell id="LCSVGYwQo2RgWbgkhEJ3-63" value="" style="edgeStyle=orthogonalEdgeStyle;rounded=0;orthogonalLoop=1;jettySize=auto;html=1;" edge="1" parent="WIyWlLk6GJQsqaUBKTNV-1" source="LCSVGYwQo2RgWbgkhEJ3-30" target="LCSVGYwQo2RgWbgkhEJ3-62">
          <mxGeometry relative="1" as="geometry" />
        </mxCell>
        <mxCell id="LCSVGYwQo2RgWbgkhEJ3-30" value="Target View Controller" style="whiteSpace=wrap;html=1;shadow=0;strokeWidth=1;spacing=6;spacingTop=-4;" vertex="1" parent="WIyWlLk6GJQsqaUBKTNV-1">
          <mxGeometry x="1210" y="440" width="130" height="55" as="geometry" />
        </mxCell>
        <mxCell id="LCSVGYwQo2RgWbgkhEJ3-65" value="" style="edgeStyle=orthogonalEdgeStyle;rounded=0;orthogonalLoop=1;jettySize=auto;html=1;" edge="1" parent="WIyWlLk6GJQsqaUBKTNV-1" source="LCSVGYwQo2RgWbgkhEJ3-32" target="LCSVGYwQo2RgWbgkhEJ3-64">
          <mxGeometry relative="1" as="geometry" />
        </mxCell>
        <mxCell id="LCSVGYwQo2RgWbgkhEJ3-32" value="View&amp;nbsp; MissionController" style="whiteSpace=wrap;html=1;shadow=0;strokeWidth=1;spacing=6;spacingTop=-4;" vertex="1" parent="WIyWlLk6GJQsqaUBKTNV-1">
          <mxGeometry x="1200" y="525" width="120" height="60" as="geometry" />
        </mxCell>
        <mxCell id="LCSVGYwQo2RgWbgkhEJ3-39" value="" style="edgeStyle=orthogonalEdgeStyle;rounded=0;orthogonalLoop=1;jettySize=auto;html=1;" edge="1" parent="WIyWlLk6GJQsqaUBKTNV-1" source="LCSVGYwQo2RgWbgkhEJ3-34" target="LCSVGYwQo2RgWbgkhEJ3-38">
          <mxGeometry relative="1" as="geometry" />
        </mxCell>
        <mxCell id="LCSVGYwQo2RgWbgkhEJ3-34" value="General Service&lt;div&gt;IGeneralService&lt;/div&gt;" style="whiteSpace=wrap;html=1;shadow=0;strokeWidth=1;spacing=6;spacingTop=-4;" vertex="1" parent="WIyWlLk6GJQsqaUBKTNV-1">
          <mxGeometry x="850" y="700" width="120" height="60" as="geometry" />
        </mxCell>
        <mxCell id="LCSVGYwQo2RgWbgkhEJ3-41" value="" style="edgeStyle=orthogonalEdgeStyle;rounded=0;orthogonalLoop=1;jettySize=auto;html=1;" edge="1" parent="WIyWlLk6GJQsqaUBKTNV-1" source="LCSVGYwQo2RgWbgkhEJ3-38" target="LCSVGYwQo2RgWbgkhEJ3-40">
          <mxGeometry relative="1" as="geometry">
            <Array as="points">
              <mxPoint x="1220" y="700" />
            </Array>
          </mxGeometry>
        </mxCell>
        <mxCell id="LCSVGYwQo2RgWbgkhEJ3-43" value="" style="edgeStyle=orthogonalEdgeStyle;rounded=0;orthogonalLoop=1;jettySize=auto;html=1;" edge="1" parent="WIyWlLk6GJQsqaUBKTNV-1" source="LCSVGYwQo2RgWbgkhEJ3-38" target="LCSVGYwQo2RgWbgkhEJ3-42">
          <mxGeometry relative="1" as="geometry" />
        </mxCell>
        <mxCell id="LCSVGYwQo2RgWbgkhEJ3-45" value="" style="edgeStyle=orthogonalEdgeStyle;rounded=0;orthogonalLoop=1;jettySize=auto;html=1;" edge="1" parent="WIyWlLk6GJQsqaUBKTNV-1" source="LCSVGYwQo2RgWbgkhEJ3-38" target="LCSVGYwQo2RgWbgkhEJ3-44">
          <mxGeometry relative="1" as="geometry" />
        </mxCell>
        <mxCell id="LCSVGYwQo2RgWbgkhEJ3-46" value="" style="edgeStyle=orthogonalEdgeStyle;rounded=0;orthogonalLoop=1;jettySize=auto;html=1;" edge="1" parent="WIyWlLk6GJQsqaUBKTNV-1" source="LCSVGYwQo2RgWbgkhEJ3-38" target="LCSVGYwQo2RgWbgkhEJ3-44">
          <mxGeometry relative="1" as="geometry" />
        </mxCell>
        <mxCell id="LCSVGYwQo2RgWbgkhEJ3-47" value="" style="edgeStyle=orthogonalEdgeStyle;rounded=0;orthogonalLoop=1;jettySize=auto;html=1;" edge="1" parent="WIyWlLk6GJQsqaUBKTNV-1" source="LCSVGYwQo2RgWbgkhEJ3-38" target="LCSVGYwQo2RgWbgkhEJ3-26">
          <mxGeometry relative="1" as="geometry" />
        </mxCell>
        <mxCell id="LCSVGYwQo2RgWbgkhEJ3-49" value="" style="edgeStyle=orthogonalEdgeStyle;rounded=0;orthogonalLoop=1;jettySize=auto;html=1;" edge="1" parent="WIyWlLk6GJQsqaUBKTNV-1" source="LCSVGYwQo2RgWbgkhEJ3-38" target="LCSVGYwQo2RgWbgkhEJ3-44">
          <mxGeometry relative="1" as="geometry" />
        </mxCell>
        <mxCell id="LCSVGYwQo2RgWbgkhEJ3-38" value="General View Controller" style="whiteSpace=wrap;html=1;shadow=0;strokeWidth=1;spacing=6;spacingTop=-4;" vertex="1" parent="WIyWlLk6GJQsqaUBKTNV-1">
          <mxGeometry x="1040" y="700" width="120" height="60" as="geometry" />
        </mxCell>
        <mxCell id="LCSVGYwQo2RgWbgkhEJ3-55" value="" style="edgeStyle=orthogonalEdgeStyle;rounded=0;orthogonalLoop=1;jettySize=auto;html=1;" edge="1" parent="WIyWlLk6GJQsqaUBKTNV-1" source="LCSVGYwQo2RgWbgkhEJ3-40" target="LCSVGYwQo2RgWbgkhEJ3-54">
          <mxGeometry relative="1" as="geometry" />
        </mxCell>
        <mxCell id="LCSVGYwQo2RgWbgkhEJ3-40" value="html view index" style="whiteSpace=wrap;html=1;shadow=0;strokeWidth=1;spacing=6;spacingTop=-4;" vertex="1" parent="WIyWlLk6GJQsqaUBKTNV-1">
          <mxGeometry x="1160" y="620" width="120" height="60" as="geometry" />
        </mxCell>
        <mxCell id="LCSVGYwQo2RgWbgkhEJ3-57" value="" style="edgeStyle=orthogonalEdgeStyle;rounded=0;orthogonalLoop=1;jettySize=auto;html=1;" edge="1" parent="WIyWlLk6GJQsqaUBKTNV-1" source="LCSVGYwQo2RgWbgkhEJ3-42" target="LCSVGYwQo2RgWbgkhEJ3-56">
          <mxGeometry relative="1" as="geometry" />
        </mxCell>
        <mxCell id="LCSVGYwQo2RgWbgkhEJ3-42" value="html details" style="whiteSpace=wrap;html=1;shadow=0;strokeWidth=1;spacing=6;spacingTop=-4;" vertex="1" parent="WIyWlLk6GJQsqaUBKTNV-1">
          <mxGeometry x="1250" y="700" width="120" height="60" as="geometry" />
        </mxCell>
        <mxCell id="LCSVGYwQo2RgWbgkhEJ3-61" style="edgeStyle=orthogonalEdgeStyle;rounded=0;orthogonalLoop=1;jettySize=auto;html=1;entryX=0.75;entryY=1;entryDx=0;entryDy=0;" edge="1" parent="WIyWlLk6GJQsqaUBKTNV-1" source="LCSVGYwQo2RgWbgkhEJ3-44" target="LCSVGYwQo2RgWbgkhEJ3-56">
          <mxGeometry relative="1" as="geometry" />
        </mxCell>
        <mxCell id="LCSVGYwQo2RgWbgkhEJ3-44" value="html view&amp;nbsp; dashboard&amp;nbsp;" style="whiteSpace=wrap;html=1;shadow=0;strokeWidth=1;spacing=6;spacingTop=-4;" vertex="1" parent="WIyWlLk6GJQsqaUBKTNV-1">
          <mxGeometry x="1010" y="820" width="120" height="60" as="geometry" />
        </mxCell>
        <mxCell id="LCSVGYwQo2RgWbgkhEJ3-60" style="edgeStyle=orthogonalEdgeStyle;rounded=0;orthogonalLoop=1;jettySize=auto;html=1;entryX=0;entryY=0.5;entryDx=0;entryDy=0;" edge="1" parent="WIyWlLk6GJQsqaUBKTNV-1" source="LCSVGYwQo2RgWbgkhEJ3-54" target="LCSVGYwQo2RgWbgkhEJ3-56">
          <mxGeometry relative="1" as="geometry" />
        </mxCell>
        <mxCell id="LCSVGYwQo2RgWbgkhEJ3-54" value="button Is Active" style="whiteSpace=wrap;html=1;shadow=0;strokeWidth=1;spacing=6;spacingTop=-4;" vertex="1" parent="WIyWlLk6GJQsqaUBKTNV-1">
          <mxGeometry x="1360" y="620" width="120" height="60" as="geometry" />
        </mxCell>
        <mxCell id="LCSVGYwQo2RgWbgkhEJ3-56" value="View LocalHost" style="whiteSpace=wrap;html=1;shadow=0;strokeWidth=1;spacing=6;spacingTop=-4;" vertex="1" parent="WIyWlLk6GJQsqaUBKTNV-1">
          <mxGeometry x="1540" y="620" width="120" height="60" as="geometry" />
        </mxCell>
        <mxCell id="LCSVGYwQo2RgWbgkhEJ3-59" style="edgeStyle=orthogonalEdgeStyle;rounded=0;orthogonalLoop=1;jettySize=auto;html=1;entryX=0.343;entryY=0.047;entryDx=0;entryDy=0;entryPerimeter=0;" edge="1" parent="WIyWlLk6GJQsqaUBKTNV-1" source="LCSVGYwQo2RgWbgkhEJ3-32" target="LCSVGYwQo2RgWbgkhEJ3-56">
          <mxGeometry relative="1" as="geometry" />
        </mxCell>
        <mxCell id="LCSVGYwQo2RgWbgkhEJ3-62" value="Target View html" style="whiteSpace=wrap;html=1;shadow=0;strokeWidth=1;spacing=6;spacingTop=-4;" vertex="1" parent="WIyWlLk6GJQsqaUBKTNV-1">
          <mxGeometry x="1420" y="440" width="130" height="55" as="geometry" />
        </mxCell>
        <mxCell id="LCSVGYwQo2RgWbgkhEJ3-64" value="View&amp;nbsp; Mission html" style="whiteSpace=wrap;html=1;shadow=0;strokeWidth=1;spacing=6;spacingTop=-4;" vertex="1" parent="WIyWlLk6GJQsqaUBKTNV-1">
          <mxGeometry x="1400" y="525" width="120" height="60" as="geometry" />
        </mxCell>
        <mxCell id="LCSVGYwQo2RgWbgkhEJ3-66" value="Simulation&amp;nbsp;" style="whiteSpace=wrap;html=1;shadow=0;strokeWidth=1;spacing=6;spacingTop=-4;" vertex="1" parent="WIyWlLk6GJQsqaUBKTNV-1">
          <mxGeometry x="580" y="700" width="120" height="60" as="geometry" />
        </mxCell>
      </root>
    </mxGraphModel>
  </diagram>
</mxfile>
